<?xml version="1.0" encoding="UTF-8"?>
<!-- Generator: Adobe Illustrator 24.0.2, SVG Export Plug-In . SVG Version: 6.00 Build 0)  -->
<svg version="1.1" id="Layer_1" xmlns="http://www.w3.org/2000/svg" xmlns:xlink="http://www.w3.org/1999/xlink" x="0px" y="0px" viewBox="0 0 242 86" style="enable-background:new 0 0 242 86;" xml:space="preserve">
<style type="text/css">
	.Drop_x0020_Shadow{fill:none;}
	.Outer_x0020_Glow_x0020_5_x0020_pt{fill:none;}
	.Blue_x0020_Neon{fill:none;stroke:#8AACDA;stroke-width:7;stroke-linecap:round;stroke-linejoin:round;}
	.Chrome_x0020_Highlight{fill:url(#SVGID_1_);stroke:#FFFFFF;stroke-width:0.3629;stroke-miterlimit:1;}
	.Jive_GS{fill:#FFDD00;}
	.Alyssa_GS{fill:#A6D0E4;}
	.st0{clip-path:url(#SVGID_3_);}
	.st1{fill-rule:evenodd;clip-rule:evenodd;fill:#E31318;}
	.st2{fill-rule:evenodd;clip-rule:evenodd;fill:#F5F5F5;}
</style>
<linearGradient id="SVGID_1_" gradientUnits="userSpaceOnUse" x1="0" y1="0" x2="6.123234e-17" y2="-1">
	<stop offset="0" style="stop-color:#656565"/>
	<stop offset="0.618" style="stop-color:#1B1B1B"/>
	<stop offset="0.6292" style="stop-color:#545454"/>
	<stop offset="0.9831" style="stop-color:#3E3E3E"/>
</linearGradient>
<g>
	<defs>
		<rect id="SVGID_2_" x="0.15" y="-0.16" width="241.6" height="85.51"/>
	</defs>
	<clipPath id="SVGID_3_">
		<use xlink:href="#SVGID_2_" style="overflow:visible;"/>
	</clipPath>
	<g class="st0">
		<path class="st1" d="M228.79,85.35H0.15V-0.16h241.6v71.29C241.76,78.99,235.95,85.35,228.79,85.35z"/>
		<path class="st2" d="M65.78,21.62v42.15H55.07v-17.7h-3.21v17.7h-10.7V21.62h10.7v15.07h3.21V21.62H65.78z"/>
		<path class="st2" d="M116.88,57.53V28.22c0-1.49-0.44-1.84-1.27-1.84c-0.94,0-1.38,0.34-1.38,1.84v29.3    c0,1.49,0.44,1.84,1.38,1.84C116.44,59.37,116.88,59.02,116.88,57.53z M126.31,54.08c0,7.59-5.71,9.82-10.88,9.82    c-5.05,0-10.77-2.24-10.77-9.82V31.21c0-7.7,5.71-9.83,10.77-9.83c5.16,0,10.88,2.13,10.88,9.83V54.08z"/>
		<path class="st2" d="M76.38,62.71c-1.01,0.96-2.2,1.44-3.56,1.44c-1.32,0-2.49-0.47-3.5-1.4c-1.03-0.93-1.54-2.48-1.54-4.63    c0-0.67,0.17-1.7,0.5-3.08c0.31-1.36,0.89-3.58,1.73-6.69c0.5-1.87,0.85-3.43,1.05-4.69c0.17-1.24,0.47-3.73,0.87-7.49h1.72    c0.56,4.74,0.94,7.67,1.14,8.78c0.19,1.11,0.58,2.68,1.17,4.69c0.74,2.57,1.21,4.28,1.43,5.14c0.33,1.34,0.5,2.38,0.5,3.14    C77.88,60.17,77.38,61.77,76.38,62.71z"/>
		<path class="st2" d="M76.42,29.83c-1,1.02-2.19,1.52-3.59,1.52c-1.4,0-2.58-0.51-3.56-1.52c-1-0.99-1.49-2.21-1.49-3.64    c0-1.44,0.5-2.66,1.49-3.67c0.98-1,2.16-1.49,3.56-1.49s2.6,0.5,3.59,1.49c0.98,1.01,1.46,2.24,1.46,3.67    C77.88,27.62,77.39,28.83,76.42,29.83z"/>
		<path class="st2" d="M194.37,63.75l-6.14-23.73l6.03-18.5h-4.34l-4.81,16.01l-0.12-16.01h-12.34v42.23h7.13V50.17l2.84,13.58    H194.37z"/>
		<path class="st2" d="M39.28,55.92v-5.35h-4.6v8.08c0,1.86-0.57,2.27-1.59,2.27c-1.14,0-1.71-0.41-1.71-2.27V30.63    c0-1.4,0.45-1.69,1.25-1.69c0.79,0,1.2,0.29,1.2,1.69v9.88h5.45V29.29c0-6.4-4.89-8.2-9.32-8.2c-4.37,0-9.26,1.81-9.26,8.2v26.63    c0,6.4,4.89,8.2,9.26,8.2C34.4,64.11,39.28,62.31,39.28,55.92z"/>
		<path class="st2" d="M209.29,48.72c-0.54-4.78-1.09-10.66-1.63-17.67c-1.09,8.05-1.76,13.94-2.04,17.67H209.29z M214.96,21.62    l6.13,42.14h-10.96l-0.54-7.57h-3.84l-0.63,7.57h-11.09l5.44-42.14H214.96z"/>
		<path class="st2" d="M152.79,21.62h17.85v8.43h-7.15v7.99h6.69v8.02h-6.69v9.26h7.86v8.44h-18.57V21.62z"/>
		<path class="st2" d="M150.94,21.62v8.43h-6.36v33.71h-10.71V30.05h-6.33v-8.43H150.94z"/>
		<path class="st2" d="M90.59,28.83v10.72c0.3,0.02,0.57,0.03,0.79,0.03c0.98,0,1.66-0.24,2.04-0.73c0.39-0.5,0.58-1.53,0.59-3.1    v-3.46c0-1.44-0.22-2.37-0.66-2.81C92.9,29.05,91.98,28.83,90.59,28.83z M79.89,21.62h10.78c2.91,0,5.16,0.23,6.71,0.7    c1.58,0.47,2.75,1.14,3.53,2.03c0.79,0.89,1.33,1.96,1.6,3.23c0.28,1.25,0.43,3.19,0.43,5.83v3.67c0,2.69-0.27,4.65-0.81,5.88    c-0.54,1.23-1.54,2.18-3,2.84c-1.44,0.66-3.33,0.99-5.67,0.99h-2.88v16.97H79.89V21.62z"/>
	</g>
</g>
</svg>