<?xml version="1.0" encoding="utf-8"?>
<!-- Generator: Adobe Illustrator 24.0.2, SVG Export Plug-In . SVG Version: 6.00 Build 0)  -->
<svg version="1.1" xmlns="http://www.w3.org/2000/svg" xmlns:xlink="http://www.w3.org/1999/xlink" x="0px" y="0px"
	 viewBox="0 0 400.14 138.34" style="enable-background:new 0 0 400.14 138.34;" xml:space="preserve">
<style type="text/css">
	.Shadow{fill:#FFFFFF;}
	.Orange_x0020_Bevel{fill:url(#SVGID_1_);}
	.Inner_x0020_Glow_x0020_5_x0020_pt{fill:none;}
	.Array_x0020_Horizontal_x0020__x0028_72_x0020_pt_x0029_{fill:none;}
	.Sherbet_x0020_Arched_x0020_Highlight{fill:url(#SVGID_2_);stroke:#FFFFFF;stroke-width:0.25;stroke-miterlimit:1;}
	.st0{fill-rule:evenodd;clip-rule:evenodd;fill:#FFFFFF;}
	.st1{fill-rule:evenodd;clip-rule:evenodd;fill:#EC2426;}
	.st2{display:none;}
	.st3{display:inline;}
</style>
<linearGradient id="SVGID_1_" gradientUnits="userSpaceOnUse" x1="25.6165" y1="-136.6678" x2="26.3237" y2="-135.9607">
	<stop  offset="0" style="stop-color:#FFFFFF"/>
	<stop  offset="1" style="stop-color:#010101"/>
</linearGradient>
<linearGradient id="SVGID_2_" gradientUnits="userSpaceOnUse" x1="25.6165" y1="-136.6678" x2="26.6165" y2="-136.6678">
	<stop  offset="0" style="stop-color:#F79226"/>
	<stop  offset="0.618" style="stop-color:#F27BAA"/>
	<stop  offset="1" style="stop-color:#F15C62"/>
</linearGradient>
<g id="RGB">
	<rect class="st0" width="400.14" height="138.34"/>
	<g>
		<polygon class="st1" points="108.69,35.24 108.69,103.42 90.96,103.42 90.96,74.78 85.65,74.78 85.65,103.42 67.92,103.42 
			67.92,35.24 85.65,35.24 85.65,59.62 90.96,59.62 90.96,35.24 108.69,35.24 		"/>
		<path class="st1" d="M193.33,93.33V45.92c0-2.42-0.73-2.98-2.09-2.98c-1.55,0-2.27,0.56-2.27,2.98v47.42
			c0,2.42,0.73,2.98,2.27,2.98C192.6,96.31,193.33,95.75,193.33,93.33L193.33,93.33z M208.94,87.76c0,12.27-9.46,15.9-18.02,15.9
			c-8.37,0-17.83-3.62-17.83-15.9v-37c0-12.46,9.46-15.9,17.83-15.9c8.55,0,18.02,3.44,18.02,15.9V87.76L208.94,87.76z"/>
		<path class="st1" d="M126.26,101.72c-1.67,1.55-3.64,2.32-5.9,2.32c-2.19,0-4.12-0.76-5.8-2.27c-1.71-1.51-2.56-4.01-2.56-7.49
			c0-1.1,0.27-2.76,0.82-4.98c0.52-2.19,1.47-5.8,2.85-10.83c0.84-3.03,1.42-5.56,1.74-7.59c0.29-2,0.77-6.04,1.45-12.13h2.85
			c0.94,7.67,1.56,12.4,1.89,14.21c0.32,1.8,0.97,4.33,1.93,7.59c1.23,4.16,2.01,6.93,2.37,8.31c0.55,2.16,0.82,3.85,0.82,5.08
			C128.72,97.61,127.9,100.21,126.26,101.72L126.26,101.72z"/>
		<path class="st1" d="M126.31,48.51c-1.64,1.64-3.63,2.47-5.94,2.47c-2.32,0-4.28-0.82-5.9-2.47c-1.64-1.61-2.46-3.57-2.46-5.9
			c0-2.32,0.82-4.3,2.46-5.94c1.61-1.61,3.58-2.42,5.9-2.42c2.32,0,4.3,0.81,5.94,2.42c1.61,1.64,2.42,3.62,2.42,5.94
			C128.72,44.93,127.92,46.9,126.31,48.51L126.31,48.51z"/>
		<polygon class="st1" points="321.65,103.39 311.48,65.01 321.46,35.07 314.27,35.07 306.3,60.98 306.11,35.07 285.67,35.07 
			285.67,103.39 297.47,103.39 297.47,81.42 302.17,103.39 321.65,103.39 		"/>
		<path class="st1" d="M64.8,90.73v-8.66h-7.62v13.08c0,3.01-0.94,3.67-2.63,3.67c-1.88,0-2.82-0.66-2.82-3.67V49.81
			c0-2.26,0.75-2.73,2.07-2.73c1.32,0,1.98,0.47,1.98,2.73V65.8h9.03V47.64c0-10.35-8.09-13.27-15.43-13.27
			c-7.24,0-15.33,2.92-15.33,13.27v43.09c0,10.35,8.09,13.26,15.33,13.26C56.71,103.99,64.8,101.08,64.8,90.73L64.8,90.73z"/>
		<path class="st1" d="M346.37,79.08c-0.9-7.72-1.8-17.25-2.7-28.6c-1.8,13.03-2.92,22.56-3.37,28.6H346.37L346.37,79.08z
			 M355.76,35.24l10.15,68.18h-18.15l-0.88-12.26h-6.36l-1.05,12.26H321.1l9.01-68.18H355.76L355.76,35.24z"/>
		<polygon class="st1" points="252.8,35.24 282.37,35.24 282.37,48.88 270.53,48.88 270.53,61.81 281.61,61.81 281.61,74.78 
			270.53,74.78 270.53,89.78 283.55,89.78 283.55,103.42 252.8,103.42 252.8,35.24 		"/>
		<polygon class="st1" points="249.74,35.24 249.74,48.88 239.21,48.88 239.21,103.42 221.47,103.42 221.47,48.88 210.99,48.88 
			210.99,35.24 249.74,35.24 		"/>
		<path class="st1" d="M149.79,46.9v17.35c0.51,0.03,0.94,0.04,1.31,0.04c1.63,0,2.75-0.39,3.37-1.18c0.65-0.81,0.97-2.48,0.97-5.01
			v-5.6c0-2.33-0.37-3.85-1.1-4.55C153.6,47.25,152.09,46.9,149.79,46.9L149.79,46.9z M132.05,35.24h17.86
			c4.83,0,8.54,0.38,11.12,1.14c2.61,0.76,4.56,1.85,5.85,3.29c1.32,1.43,2.2,3.17,2.65,5.22c0.48,2.02,0.71,5.17,0.72,9.43v5.94
			c0,4.35-0.45,7.53-1.35,9.52c-0.9,1.99-2.56,3.53-4.97,4.59c-2.39,1.07-5.52,1.6-9.39,1.6h-4.76v27.46h-17.73V35.24L132.05,35.24z
			"/>
	</g>
</g>
<g id="WHITE" class="st2">
	<g class="st3">
		<g>
			<polygon class="st0" points="120.6,30.65 120.6,89.96 105.18,89.96 105.18,65.05 100.56,65.05 100.56,89.96 85.14,89.96 
				85.14,30.65 100.56,30.65 100.56,51.86 105.18,51.86 105.18,30.65 120.6,30.65 			"/>
		</g>
		<g>
			<path class="st0" d="M194.22,81.18V39.94c0-2.1-0.63-2.59-1.82-2.59c-1.35,0-1.98,0.49-1.98,2.59v41.24
				c0,2.1,0.63,2.59,1.98,2.59C193.59,83.77,194.22,83.28,194.22,81.18L194.22,81.18z M207.8,76.33c0,10.67-8.23,13.83-15.67,13.83
				c-7.28,0-15.51-3.15-15.51-13.83V44.15c0-10.84,8.23-13.83,15.51-13.83c7.44,0,15.67,2.99,15.67,13.83V76.33L207.8,76.33z"/>
		</g>
		<g>
			<path class="st0" d="M135.88,88.48c-1.46,1.35-3.16,2.02-5.13,2.02c-1.91,0-3.59-0.66-5.04-1.98c-1.48-1.32-2.23-3.49-2.23-6.52
				c0-0.95,0.24-2.4,0.71-4.33c0.45-1.91,1.28-5.04,2.48-9.42c0.73-2.63,1.23-4.83,1.51-6.6c0.25-1.74,0.67-5.25,1.26-10.55h2.48
				c0.81,6.67,1.36,10.79,1.64,12.36c0.28,1.57,0.84,3.77,1.68,6.6c1.07,3.62,1.75,6.02,2.06,7.23c0.48,1.88,0.71,3.35,0.71,4.42
				C138.02,84.9,137.31,87.16,135.88,88.48L135.88,88.48z"/>
		</g>
		<g>
			<path class="st0" d="M135.92,42.19c-1.43,1.43-3.15,2.14-5.17,2.14c-2.02,0-3.73-0.71-5.13-2.14c-1.43-1.4-2.14-3.11-2.14-5.13
				c0-2.02,0.71-3.74,2.14-5.17c1.4-1.4,3.11-2.1,5.13-2.1c2.02,0,3.74,0.7,5.17,2.1c1.4,1.43,2.1,3.15,2.1,5.17
				C138.02,39.08,137.32,40.79,135.92,42.19L135.92,42.19z"/>
		</g>
		<g>
			<polygon class="st0" points="305.84,89.93 296.99,56.54 305.67,30.5 299.41,30.5 292.48,53.04 292.31,30.5 274.53,30.5 
				274.53,89.93 284.8,89.93 284.8,70.82 288.89,89.93 305.84,89.93 			"/>
		</g>
		<g>
			<path class="st0" d="M82.43,78.92v-7.53H75.8v11.37c0,2.62-0.82,3.19-2.29,3.19c-1.64,0-2.46-0.57-2.46-3.19V43.32
				c0-1.96,0.65-2.37,1.8-2.37c1.15,0,1.72,0.41,1.72,2.37v13.91h7.85V41.44c0-9-7.04-11.54-13.42-11.54
				c-6.3,0-13.34,2.54-13.34,11.54v37.48c0,9,7.04,11.54,13.34,11.54C75.39,90.45,82.43,87.92,82.43,78.92L82.43,78.92z"/>
		</g>
		<g>
			<path class="st0" d="M327.33,68.78c-0.78-6.72-1.56-15.01-2.34-24.87c-1.56,11.33-2.54,19.62-2.93,24.87H327.33L327.33,68.78z
				 M335.5,30.65l8.83,59.31h-15.79l-0.77-10.66h-5.53l-0.92,10.66h-15.97l7.84-59.31H335.5L335.5,30.65z"/>
		</g>
		<g>
			<polygon class="st0" points="245.95,30.65 271.66,30.65 271.66,42.52 261.37,42.52 261.37,53.76 271,53.76 271,65.05 
				261.37,65.05 261.37,78.09 272.69,78.09 272.69,89.96 245.95,89.96 245.95,30.65 			"/>
		</g>
		<g>
			<polygon class="st0" points="243.28,30.65 243.28,42.52 234.12,42.52 234.12,89.96 218.7,89.96 218.7,42.52 209.58,42.52 
				209.58,30.65 243.28,30.65 			"/>
		</g>
		<g>
			<path class="st0" d="M156.34,40.8v15.09c0.44,0.03,0.82,0.04,1.14,0.04c1.41,0,2.39-0.34,2.93-1.02
				c0.56-0.71,0.84-2.16,0.84-4.36v-4.87c0-2.03-0.32-3.34-0.95-3.96C159.66,41.1,158.34,40.8,156.34,40.8L156.34,40.8z
				 M140.92,30.65h15.53c4.2,0,7.42,0.33,9.67,0.99c2.27,0.66,3.97,1.61,5.09,2.86c1.15,1.25,1.92,2.76,2.31,4.54
				c0.41,1.76,0.62,4.5,0.62,8.21v5.16c0,3.79-0.39,6.55-1.17,8.28c-0.78,1.73-2.22,3.07-4.32,3.99c-2.08,0.93-4.8,1.39-8.17,1.39
				h-4.14v23.88h-15.42V30.65L140.92,30.65z"/>
		</g>
	</g>
</g>
</svg>
