<?xml version="1.0" encoding="utf-8"?>
<!-- Generator: Adobe Illustrator 24.0.2, SVG Export Plug-In . SVG Version: 6.00 Build 0)  -->
<svg version="1.1" xmlns="http://www.w3.org/2000/svg" xmlns:xlink="http://www.w3.org/1999/xlink" x="0px" y="0px"
	 viewBox="0 0 399.88 138.25" style="enable-background:new 0 0 399.88 138.25;" xml:space="preserve">
<style type="text/css">
	.Shadow{fill:#FFFFFF;}
	.Orange_x0020_Bevel{fill:url(#SVGID_1_);}
	.Inner_x0020_Glow_x0020_5_x0020_pt{fill:none;}
	.Array_x0020_Horizontal_x0020__x0028_72_x0020_pt_x0029_{fill:none;}
	.Sherbet_x0020_Arched_x0020_Highlight{fill:url(#SVGID_2_);stroke:#FFFFFF;stroke-width:0.25;stroke-miterlimit:1;}
	.st0{fill-rule:evenodd;clip-rule:evenodd;fill:#EC2426;}
	.st1{fill-rule:evenodd;clip-rule:evenodd;fill:#FFFFFF;}
	.st2{display:none;}
	.st3{display:inline;}
</style>
<linearGradient id="SVGID_1_" gradientUnits="userSpaceOnUse" x1="25.493" y1="-136.6678" x2="26.2001" y2="-135.9607">
	<stop  offset="0" style="stop-color:#FFFFFF"/>
	<stop  offset="1" style="stop-color:#010101"/>
</linearGradient>
<linearGradient id="SVGID_2_" gradientUnits="userSpaceOnUse" x1="25.493" y1="-136.6678" x2="26.493" y2="-136.6678">
	<stop  offset="0" style="stop-color:#F79226"/>
	<stop  offset="0.618" style="stop-color:#F27BAA"/>
	<stop  offset="1" style="stop-color:#F15C62"/>
</linearGradient>
<g id="RGB">
	<rect x="-0.06" y="-0.02" class="st0" width="400" height="138.29"/>
	<g>
		<g>
			<polygon class="st1" points="108.62,35.21 108.62,103.35 90.9,103.35 90.9,74.73 85.6,74.73 85.6,103.35 67.88,103.35 
				67.88,35.21 85.6,35.21 85.6,59.58 90.9,59.58 90.9,35.21 108.62,35.21 			"/>
		</g>
		<g>
			<path class="st1" d="M193.2,93.27V45.89c0-2.42-0.73-2.97-2.09-2.97c-1.55,0-2.27,0.56-2.27,2.97v47.38
				c0,2.42,0.73,2.97,2.27,2.97C192.47,96.24,193.2,95.69,193.2,93.27L193.2,93.27z M208.8,87.7c0,12.26-9.46,15.89-18,15.89
				c-8.37,0-17.82-3.62-17.82-15.89V50.72c0-12.45,9.46-15.89,17.82-15.89c8.55,0,18,3.44,18,15.89V87.7L208.8,87.7z"/>
		</g>
		<g>
			<path class="st1" d="M126.17,101.65c-1.67,1.55-3.64,2.32-5.89,2.32c-2.19,0-4.12-0.76-5.8-2.27c-1.71-1.51-2.56-4.01-2.56-7.49
				c0-1.1,0.27-2.75,0.82-4.97c0.52-2.19,1.47-5.8,2.85-10.82c0.84-3.03,1.42-5.55,1.74-7.58c0.29-2,0.77-6.04,1.45-12.12h2.85
				c0.93,7.66,1.56,12.39,1.88,14.2c0.32,1.8,0.96,4.33,1.93,7.58c1.22,4.15,2.01,6.92,2.37,8.31c0.55,2.16,0.82,3.85,0.82,5.07
				C128.64,97.55,127.82,100.14,126.17,101.65L126.17,101.65z"/>
		</g>
		<g>
			<path class="st1" d="M126.22,48.48c-1.64,1.64-3.62,2.46-5.94,2.46c-2.32,0-4.28-0.82-5.89-2.46c-1.64-1.61-2.46-3.57-2.46-5.89
				c0-2.32,0.82-4.3,2.46-5.94c1.61-1.61,3.57-2.41,5.89-2.42c2.32,0,4.3,0.81,5.94,2.42c1.61,1.64,2.41,3.62,2.41,5.94
				C128.64,44.9,127.83,46.87,126.22,48.48L126.22,48.48z"/>
		</g>
		<g>
			<polygon class="st1" points="321.44,103.32 311.28,64.96 321.25,35.04 314.06,35.04 306.1,60.94 305.91,35.04 285.48,35.04 
				285.48,103.32 297.27,103.32 297.27,81.37 301.97,103.32 321.44,103.32 			"/>
		</g>
		<g>
			<path class="st1" d="M64.76,90.67v-8.65h-7.62v13.07c0,3.01-0.94,3.67-2.63,3.67c-1.88,0-2.82-0.66-2.82-3.67V49.77
				c0-2.26,0.75-2.73,2.07-2.73c1.32,0,1.97,0.47,1.97,2.73v15.98h9.02V47.61c0-10.34-8.08-13.26-15.42-13.26
				c-7.24,0-15.32,2.91-15.32,13.26v43.06c0,10.34,8.08,13.25,15.32,13.25C56.68,103.92,64.76,101.01,64.76,90.67L64.76,90.67z"/>
		</g>
		<g>
			<path class="st1" d="M346.14,79.03c-0.9-7.72-1.8-17.24-2.69-28.58c-1.8,13.02-2.92,22.55-3.37,28.58H346.14L346.14,79.03z
				 M355.52,35.21l10.14,68.14h-18.14l-0.88-12.25h-6.36l-1.05,12.25h-18.35l9.01-68.14H355.52L355.52,35.21z"/>
		</g>
		<g>
			<polygon class="st1" points="252.63,35.21 282.18,35.21 282.18,48.85 270.35,48.85 270.35,61.77 281.42,61.77 281.42,74.73 
				270.35,74.73 270.35,89.72 283.36,89.72 283.36,103.35 252.63,103.35 252.63,35.21 			"/>
		</g>
		<g>
			<polygon class="st1" points="249.57,35.21 249.57,48.85 239.05,48.85 239.05,103.35 221.33,103.35 221.33,48.85 210.85,48.85 
				210.85,35.21 249.57,35.21 			"/>
		</g>
		<g>
			<path class="st1" d="M149.69,46.87v17.34c0.51,0.03,0.94,0.04,1.31,0.04c1.63,0,2.75-0.39,3.37-1.18
				c0.65-0.81,0.97-2.48,0.97-5.01v-5.6c0-2.33-0.37-3.84-1.09-4.55C153.5,47.22,151.99,46.87,149.69,46.87L149.69,46.87z
				 M131.97,35.21h17.85c4.83,0,8.53,0.38,11.11,1.13c2.61,0.76,4.56,1.85,5.85,3.28c1.32,1.43,2.2,3.17,2.65,5.22
				c0.48,2.02,0.71,5.16,0.72,9.43v5.93c0,4.35-0.45,7.52-1.35,9.51c-0.9,1.99-2.55,3.52-4.97,4.59c-2.39,1.07-5.51,1.6-9.39,1.6
				h-4.76v27.44h-17.72V35.21L131.97,35.21z"/>
		</g>
	</g>
</g>
<g id="WHITE" class="st2">
	<g class="st3">
		<g>
			<polygon class="st1" points="120.47,30.65 120.47,89.96 105.05,89.96 105.05,65.05 100.44,65.05 100.44,89.96 85.01,89.96 
				85.01,30.65 100.44,30.65 100.44,51.86 105.05,51.86 105.05,30.65 120.47,30.65 			"/>
		</g>
		<g>
			<path class="st1" d="M194.09,81.18V39.94c0-2.1-0.63-2.59-1.82-2.59c-1.35,0-1.98,0.49-1.98,2.59v41.24
				c0,2.1,0.63,2.59,1.98,2.59C193.46,83.77,194.09,83.28,194.09,81.18L194.09,81.18z M207.67,76.33c0,10.67-8.23,13.83-15.67,13.83
				c-7.28,0-15.51-3.15-15.51-13.83V44.15c0-10.84,8.23-13.83,15.51-13.83c7.44,0,15.67,2.99,15.67,13.83V76.33L207.67,76.33z"/>
		</g>
		<g>
			<path class="st1" d="M135.75,88.48c-1.46,1.35-3.16,2.02-5.13,2.02c-1.91,0-3.59-0.66-5.04-1.98c-1.48-1.32-2.23-3.49-2.23-6.52
				c0-0.95,0.24-2.4,0.71-4.33c0.45-1.91,1.28-5.04,2.48-9.42c0.73-2.63,1.23-4.83,1.51-6.6c0.25-1.74,0.67-5.25,1.26-10.55h2.48
				c0.81,6.67,1.36,10.79,1.64,12.36c0.28,1.57,0.84,3.77,1.68,6.6c1.07,3.62,1.75,6.02,2.06,7.23c0.48,1.88,0.71,3.35,0.71,4.42
				C137.9,84.9,137.18,87.16,135.75,88.48L135.75,88.48z"/>
		</g>
		<g>
			<path class="st1" d="M135.8,42.19c-1.43,1.43-3.15,2.14-5.17,2.14c-2.02,0-3.73-0.71-5.13-2.14c-1.43-1.4-2.14-3.11-2.14-5.13
				c0-2.02,0.71-3.74,2.14-5.17c1.4-1.4,3.11-2.1,5.13-2.1c2.02,0,3.74,0.7,5.17,2.1c1.4,1.43,2.1,3.15,2.1,5.17
				C137.9,39.08,137.2,40.79,135.8,42.19L135.8,42.19z"/>
		</g>
		<g>
			<polygon class="st1" points="305.71,89.93 296.86,56.54 305.54,30.5 299.29,30.5 292.36,53.04 292.19,30.5 274.41,30.5 
				274.41,89.93 284.68,89.93 284.68,70.82 288.77,89.93 305.71,89.93 			"/>
		</g>
		<g>
			<path class="st1" d="M82.3,78.92v-7.53h-6.63v11.37c0,2.62-0.82,3.19-2.29,3.19c-1.64,0-2.46-0.57-2.46-3.19V43.32
				c0-1.96,0.65-2.37,1.8-2.37c1.15,0,1.72,0.41,1.72,2.37v13.91h7.86V41.44c0-9-7.04-11.54-13.42-11.54
				c-6.3,0-13.34,2.54-13.34,11.54v37.48c0,9,7.04,11.54,13.34,11.54C75.27,90.45,82.3,87.92,82.3,78.92L82.3,78.92z"/>
		</g>
		<g>
			<path class="st1" d="M327.21,68.78c-0.78-6.72-1.56-15.01-2.34-24.87c-1.56,11.33-2.54,19.62-2.93,24.87H327.21L327.21,68.78z
				 M335.38,30.65l8.83,59.31h-15.79l-0.77-10.66h-5.53l-0.92,10.66h-15.97l7.84-59.31H335.38L335.38,30.65z"/>
		</g>
		<g>
			<polygon class="st1" points="245.82,30.65 271.54,30.65 271.54,42.52 261.24,42.52 261.24,53.76 270.88,53.76 270.88,65.05 
				261.24,65.05 261.24,78.09 272.57,78.09 272.57,89.96 245.82,89.96 245.82,30.65 			"/>
		</g>
		<g>
			<polygon class="st1" points="243.16,30.65 243.16,42.52 234,42.52 234,89.96 218.58,89.96 218.58,42.52 209.45,42.52 
				209.45,30.65 243.16,30.65 			"/>
		</g>
		<g>
			<path class="st1" d="M156.22,40.8v15.09c0.44,0.03,0.82,0.04,1.14,0.04c1.41,0,2.39-0.34,2.93-1.02
				c0.56-0.71,0.84-2.16,0.84-4.36v-4.87c0-2.03-0.32-3.34-0.95-3.96C159.54,41.1,158.22,40.8,156.22,40.8L156.22,40.8z
				 M140.8,30.65h15.53c4.2,0,7.42,0.33,9.67,0.99c2.27,0.66,3.97,1.61,5.09,2.86c1.15,1.25,1.92,2.76,2.31,4.54
				c0.41,1.76,0.62,4.5,0.62,8.21v5.16c0,3.79-0.39,6.55-1.17,8.28c-0.78,1.73-2.22,3.07-4.32,3.99c-2.08,0.93-4.8,1.39-8.17,1.39
				h-4.14v23.88H140.8V30.65L140.8,30.65z"/>
		</g>
	</g>
</g>
</svg>
