<?xml version="1.0" standalone="no"?>
<!DOCTYPE svg PUBLIC "-//W3C//DTD SVG 20010904//EN"
 "http://www.w3.org/TR/2001/REC-SVG-20010904/DTD/svg10.dtd">
<svg version="1.0" xmlns="http://www.w3.org/2000/svg"
 width="300.000000pt" height="300.000000pt" viewBox="0 0 300.000000 300.000000"
 preserveAspectRatio="xMidYMid meet">
<metadata>
Created by potrace 1.14, written by Peter Selinger 2001-2017
</metadata>
<g transform="translate(0.000000,300.000000) scale(0.100000,-0.100000)"
fill="#000000" stroke="none">
<path d="M0 1500 l0 -1500 1500 0 1500 0 0 1500 0 1500 -1500 0 -1500 0 0
-1500z m837 906 c113 -35 199 -127 222 -238 6 -27 11 -165 11 -313 l0 -265
-120 0 -120 0 0 234 c0 200 -2 237 -16 250 -8 9 -24 16 -34 16 -10 0 -26 -7
-34 -16 -14 -14 -16 -88 -16 -670 0 -641 0 -654 20 -674 20 -20 65 -26 87 -12
26 17 33 69 33 253 l0 189 100 0 100 0 0 -147 c0 -170 -14 -234 -66 -305 -99
-137 -370 -181 -561 -91 -66 31 -134 105 -158 175 -18 50 -20 93 -23 662 -2
400 1 633 8 678 12 81 45 150 92 195 38 36 126 79 190 93 60 13 223 4 285 -14z
m1761 8 c83 -34 134 -113 134 -205 0 -177 -178 -282 -328 -194 -153 90 -138
328 26 399 46 20 121 20 168 0z m-988 -329 l0 -325 70 0 70 0 0 325 0 325 230
0 230 0 0 -915 0 -915 -230 0 -230 0 0 385 0 385 -70 0 -70 0 0 -385 0 -385
-230 0 -230 0 0 915 0 915 230 0 230 0 0 -325z m944 -327 c3 -13 8 -50 11 -83
19 -184 50 -350 96 -512 71 -249 82 -310 69 -390 -12 -76 -27 -107 -67 -145
-87 -83 -230 -76 -310 15 -71 81 -73 183 -9 427 73 275 93 374 111 535 9 83
18 156 20 163 3 6 20 12 39 12 29 0 37 -4 40 -22z"/>
</g>
</svg>
