<?xml version="1.0" encoding="utf-8"?>
<!-- Generator: Adobe Illustrator 24.0.2, SVG Export Plug-In . SVG Version: 6.00 Build 0)  -->
<svg version="1.1" id="Layer_1" xmlns="http://www.w3.org/2000/svg" xmlns:xlink="http://www.w3.org/1999/xlink" x="0px" y="0px"
	 viewBox="0 0 42 27" style="enable-background:new 0 0 42 27;" xml:space="preserve">
<style type="text/css">
	.st0{fill-rule:evenodd;clip-rule:evenodd;fill:#E31318;}
</style>
<path class="st0" d="M2.5,0.5c-1.2,0-2.2,1-2.2,2.2v21.6c0,1.2,1,2.2,2.2,2.2h37c1.2,0,2.2-1,2.2-2.2V2.7c0-1.2-1-2.2-2.2-2.2H2.5z
	 M26.6,7.9c1.1,0,2,0.2,2.6,0.4l-0.4,2.3l-0.3-0.1c-0.5-0.2-1.2-0.4-2.2-0.4c-1.1,0-1.7,0.5-1.7,0.9c0,0.5,0.6,0.8,1.7,1.3
	c1.7,0.8,2.5,1.7,2.5,2.9c0,2.2-2,3.7-5.1,3.7c-1.3,0-2.6-0.3-3.3-0.6l0.4-2.4l0.4,0.2c1,0.4,1.6,0.6,2.8,0.6c0.8,0,1.8-0.3,1.8-1.1
	c0-0.5-0.4-0.8-1.5-1.3c-1.1-0.5-2.6-1.4-2.6-2.9C21.6,9.4,23.7,7.9,26.6,7.9z M36.8,8.1h-2.3c-0.7,0-1.2,0.2-1.5,0.9l-4.4,9.9h3.1
	c0,0,0.5-1.3,0.6-1.6c0.2,0,0.9,0,1.7,0h0c0.9,0,1.8,0,2.1,0c0.1,0.4,0.4,1.6,0.4,1.6h2.7L36.8,8.1z M34.3,12.1l-1.2,3h2.5
	c-0.1-0.5-0.7-3.1-0.7-3.1L34.7,11c-0.1,0.2-0.2,0.5-0.3,0.8C34.4,11.9,34.3,12.1,34.3,12.1z M15.6,18.9h2.9l1.8-10.8h-3L15.6,18.9z
	 M8.9,9l1,5l0.3,1.5l2.9-7.4h3.1l-4.6,10.8l-3.1,0L5.9,9.5C5,9,4,8.6,2.8,8.3l0-0.2h4.8C8.2,8.1,8.8,8.3,8.9,9z"/>
</svg>
