<svg width="296" height="287" viewBox="0 0 296 287" fill="none" xmlns="http://www.w3.org/2000/svg">
<path d="M295.875 94.8281C295.875 88.1504 290.225 82.5 283.547 82.5H248.617L193.654 7.50389C188.518 -0.201183 178.244 -1.7422 171.053 3.90819C163.348 9.04491 161.807 19.3183 167.457 26.5098L208.037 82.5H87.3242L127.904 26.5098C133.555 19.3183 132.014 9.04491 124.309 3.90819C117.117 -1.7422 106.844 -0.201183 101.707 7.50389L46.7441 82.5H12.3281C5.13672 82.5 0 88.1504 0 94.8281V103.047C0 110.238 5.13672 115.375 12.3281 115.375H16.4375L29.793 209.377C31.334 221.705 41.6074 230.437 53.9355 230.437H241.426C253.754 230.437 264.027 221.705 265.568 209.377L279.438 115.375H283.547C290.225 115.375 295.875 110.238 295.875 103.047V94.8281ZM160.266 185.234C160.266 192.426 154.615 197.562 147.938 197.562C140.746 197.562 135.609 192.426 135.609 185.234V127.703C135.609 121.025 140.746 115.375 147.938 115.375C154.615 115.375 160.266 121.025 160.266 127.703V185.234ZM217.797 185.234C217.797 192.426 212.146 197.562 205.469 197.562C198.277 197.562 193.141 192.426 193.141 185.234V127.703C193.141 121.025 198.277 115.375 205.469 115.375C212.146 115.375 217.797 121.025 217.797 127.703V185.234ZM102.734 185.234C102.734 192.426 97.084 197.562 90.4062 197.562C83.2148 197.562 78.0781 192.426 78.0781 185.234V127.703C78.0781 121.025 83.2148 115.375 90.4062 115.375C97.084 115.375 102.734 121.025 102.734 127.703V185.234Z" fill="#F5F5F5"/>
<circle cx="148" cy="226" r="61" fill="#E31318"/>
<path d="M159.066 226.625L176.449 209.242C178.708 207.156 178.708 203.68 176.449 201.594L172.625 197.77C170.539 195.51 167.062 195.51 164.976 197.77L147.593 215.152L130.037 197.77C127.951 195.51 124.474 195.51 122.388 197.77L118.564 201.594C116.304 203.68 116.304 207.156 118.564 209.242L135.947 226.625L118.564 244.182C116.304 246.268 116.304 249.744 118.564 251.83L122.388 255.654C124.474 257.914 127.951 257.914 130.037 255.654L147.593 238.271L164.976 255.654C167.062 257.914 170.539 257.914 172.625 255.654L176.449 251.83C178.708 249.744 178.708 246.268 176.449 244.182L159.066 226.625Z" fill="#F5F5F5"/>
</svg>
