<svg width="40" height="40" viewBox="0 0 40 40" fill="none" xmlns="http://www.w3.org/2000/svg">
<path d="M39.5288 19.9063C39.5288 9.13623 30.8027 0.410156 20.0327 0.410156C9.2627 0.410156 0.536621 9.13623 0.536621 19.9062C0.536621 29.6543 7.61182 37.7515 16.9668 39.1665L16.9668 25.5664L12.0142 25.5664V19.9063L16.9668 19.9063V15.6611C16.9668 10.7871 19.8755 8.03564 24.2778 8.03564C26.479 8.03564 28.6802 8.42871 28.6802 8.42871V13.2241H26.2432C23.8062 13.2241 23.02 14.7178 23.02 16.29V19.9063H28.4443L27.5796 25.5664H23.02L23.02 39.1665C32.375 37.7515 39.5288 29.6543 39.5288 19.9063Z" fill="#1B84E5"/>
</svg>
