<?xml version="1.0" encoding="utf-8"?>
<!-- Generator: Adobe Illustrator 24.0.2, SVG Export Plug-In . SVG Version: 6.00 Build 0)  -->
<svg version="1.1" xmlns="http://www.w3.org/2000/svg" xmlns:xlink="http://www.w3.org/1999/xlink" x="0px" y="0px" width="51px"
	 height="42px" viewBox="0 0 51 42" style="enable-background:new 0 0 51 42;" xml:space="preserve">
<style type="text/css">
	.st0{display:none;}
	.st1{display:inline;fill:#1B84E5;}
	.st2{fill:#1B84E5;}
</style>
<g id="Layer_1" class="st0">
	<path class="st1" d="M49.7,28.5h-1.3V20c0-0.9-0.5-2-1.2-2.7l-7.8-7.8c-0.7-0.7-1.7-1.2-2.7-1.2h-3.5V4.6c0-2-1.7-3.8-3.8-3.8H9.5
		c-2.1,0-3.8,1.7-3.8,3.8v3.8l-4.4,0C0.9,8.3,0.7,8.6,0.7,9v1.3c0,0.4,0.2,0.6,0.6,0.6h21.4c0.3,0,0.6,0.3,0.6,0.6v1.3
		c0,0.4-0.3,0.6-0.6,0.6H3.8c-0.4,0-0.6,0.3-0.6,0.6v1.3c0,0.4,0.2,0.6,0.6,0.6h16.4c0.3,0,0.6,0.3,0.6,0.6v1.3
		c0,0.4-0.3,0.6-0.6,0.6H1.3c-0.4,0-0.6,0.3-0.6,0.6v1.3c0,0.4,0.2,0.6,0.6,0.6l16.4,0c0.3,0,0.6,0.3,0.6,0.6v1.3
		c0,0.4-0.3,0.6-0.6,0.6H5.7v10.1c0,4.2,3.4,7.5,7.5,7.5c4.2,0,7.5-3.4,7.5-7.5h10.1c0,4.2,3.4,7.5,7.5,7.5s7.5-3.4,7.5-7.5h3.8
		c0.6,0,1.3-0.6,1.3-1.3v-2.5C51,29.1,50.4,28.5,49.7,28.5z M13.3,37.3c-2.1,0-3.8-1.7-3.8-3.8c0-2,1.7-3.8,3.8-3.8
		c2,0,3.8,1.7,3.8,3.8C17,35.6,15.3,37.3,13.3,37.3z M38.4,37.3c-2.1,0-3.8-1.7-3.8-3.8c0-2,1.7-3.8,3.8-3.8c2,0,3.8,1.7,3.8,3.8
		C42.2,35.6,40.5,37.3,38.4,37.3z M44.7,20.9H33.4v-8.8h3.5l7.9,7.9V20.9z"/>
</g>
<g id="Layer_2">
	<path class="st2" d="M34.6,5.7h-6.8c-0.6,0-1.2,0.2-1.7,0.7l-7.8,7.2c0,0,0,0,0,0c-1.3,1.2-1.3,3.2-0.2,4.5c1,1.1,3.1,1.4,4.5,0.2
		c0,0,0,0,0,0l6.4-5.8c0.5-0.5,1.3-0.4,1.8,0.1c0.5,0.5,0.4,1.3-0.1,1.8l-2.1,1.9l11.6,9.4c0.2,0.2,0.4,0.4,0.6,0.6V10.8l-4.3-4.3
		C35.9,6,35.3,5.7,34.6,5.7L34.6,5.7z M43.3,10.8v17.8c0,1.4,1.1,2.5,2.5,2.5h5.1V10.8H43.3z M47.1,28.6c-0.7,0-1.3-0.6-1.3-1.3
		c0-0.7,0.6-1.3,1.3-1.3s1.3,0.6,1.3,1.3C48.4,28.1,47.8,28.6,47.1,28.6z M0.1,31.2h5.1c1.4,0,2.5-1.1,2.5-2.5V10.8H0.1V31.2z
		 M3.9,26.1c0.7,0,1.3,0.6,1.3,1.3c0,0.7-0.6,1.3-1.3,1.3s-1.3-0.6-1.3-1.3C2.6,26.7,3.2,26.1,3.9,26.1z M38.5,27.6l-11.9-9.6
		l-2.4,2.2c-2.4,2.2-6,1.9-8.1-0.3c-2.1-2.3-2-6,0.3-8.1l6.5-6h-6.7c-0.7,0-1.3,0.3-1.8,0.7l-4.3,4.3v17.8h1.5l7.2,6.5
		c2.2,1.8,5.4,1.4,7.2-0.7l0,0l1.4,1.2c1.3,1,3.1,0.8,4.2-0.4l2.5-3.1l0.4,0.3c1.1,0.9,2.7,0.7,3.6-0.4l0.8-0.9
		C39.8,30.1,39.6,28.5,38.5,27.6L38.5,27.6z"/>
</g>
</svg>
