<svg width="36" height="42" viewBox="0 0 36 42" fill="none" xmlns="http://www.w3.org/2000/svg">
<path d="M32.2266 18.3906H30.3398V12.7305C30.3398 6.20557 24.9155 0.78125 18.3906 0.78125C11.7871 0.78125 6.44141 6.20557 6.44141 12.7305V18.3906L4.55469 18.3906C2.43213 18.3906 0.78125 20.1201 0.78125 22.1641L0.78125 37.2578C0.78125 39.3804 2.43213 41.0312 4.55469 41.0312L32.2266 41.0313C34.2705 41.0313 36 39.3804 36 37.2578V22.1641C36 20.1201 34.2705 18.3906 32.2266 18.3906ZM21.5352 31.5977C21.5352 33.4058 20.1201 34.7422 18.3906 34.7422C16.5825 34.7422 15.2461 33.4058 15.2461 31.5977V27.8242C15.2461 26.0947 16.5825 24.6797 18.3906 24.6797C20.1201 24.6797 21.5352 26.0947 21.5352 27.8242V31.5977ZM24.0508 18.3906L12.7305 18.3906L12.7305 12.7305C12.7305 9.66455 15.2461 7.07031 18.3906 7.07031C21.4565 7.07031 24.0508 9.66455 24.0508 12.7305V18.3906Z" fill="#1B84E5"/>
</svg>
