<svg width="51" height="42" viewBox="0 0 51 42" fill="none" xmlns="http://www.w3.org/2000/svg">
<path d="M49.7422 28.4531H48.4844V19.9629C48.4844 19.0195 48.0127 17.9976 47.3052 17.29L39.5225 9.50732C38.8149 8.7998 37.793 8.32813 36.8496 8.32813L33.3906 8.32813V4.55469C33.3906 2.51074 31.6611 0.78125 29.6172 0.78125L9.49219 0.78125C7.36963 0.78125 5.71875 2.51074 5.71875 4.55469V8.32813L1.31641 8.32812C0.92334 8.32812 0.6875 8.64258 0.6875 8.95703L0.6875 10.2148C0.6875 10.6079 0.92334 10.8438 1.31641 10.8438L22.6992 10.8438C23.0137 10.8438 23.3281 11.1582 23.3281 11.4727V12.7305C23.3281 13.1235 23.0137 13.3594 22.6992 13.3594L3.83203 13.3594C3.43896 13.3594 3.20312 13.6738 3.20312 13.9883V15.2461C3.20312 15.6392 3.43896 15.875 3.83203 15.875L20.1836 15.875C20.498 15.875 20.8125 16.1895 20.8125 16.5039V17.7617C20.8125 18.1548 20.498 18.3906 20.1836 18.3906L1.31641 18.3906C0.92334 18.3906 0.6875 18.7051 0.6875 19.0195L0.6875 20.2773C0.6875 20.6704 0.92334 20.9062 1.31641 20.9062L17.668 20.9063C17.9824 20.9063 18.2969 21.2207 18.2969 21.5352V22.793C18.2969 23.186 17.9824 23.4219 17.668 23.4219L5.71875 23.4219L5.71875 33.4844C5.71875 37.6509 9.09912 41.0313 13.2656 41.0313C17.4321 41.0313 20.8125 37.6509 20.8125 33.4844L30.875 33.4844C30.875 37.6509 34.2554 41.0313 38.4219 41.0313C42.5884 41.0313 45.9688 37.6509 45.9688 33.4844H49.7422C50.3711 33.4844 51 32.9341 51 32.2266V29.7109C51 29.082 50.3711 28.4531 49.7422 28.4531ZM13.2656 37.2578C11.1431 37.2578 9.49219 35.6069 9.49219 33.4844C9.49219 31.4404 11.1431 29.7109 13.2656 29.7109C15.3096 29.7109 17.0391 31.4404 17.0391 33.4844C17.0391 35.6069 15.3096 37.2578 13.2656 37.2578ZM38.4219 37.2578C36.2993 37.2578 34.6484 35.6069 34.6484 33.4844C34.6484 31.4404 36.2993 29.7109 38.4219 29.7109C40.4658 29.7109 42.1953 31.4404 42.1953 33.4844C42.1953 35.6069 40.4658 37.2578 38.4219 37.2578ZM44.7109 20.9063L33.3906 20.9063V12.1016L36.8496 12.1016L44.7109 19.9629V20.9063Z" fill="#1B84E5"/>
</svg>
