<svg width="17" height="17" viewBox="0 0 17 17" fill="none" xmlns="http://www.w3.org/2000/svg">
<path d="M14.3588 2.05919L9.495 1.61704C8.61069 1.46965 6.62092 1.61702 5.73659 1.61702C4.63117 1.61702 3.30462 2.05919 3.08359 2.28027C2.90677 2.45714 2.27293 3.38568 1.97812 3.82785C1.90444 4.93326 1.75709 7.23253 1.75709 7.58626C1.75709 8.02843 1.75703 9.79709 1.53595 10.6814C1.31487 11.5658 1.53595 11.7868 1.97812 13.3344C2.33185 14.5725 3.00984 15.3242 3.30462 15.5452L5.07328 15.9874C6.84194 16.0611 10.4235 16.2085 10.6004 16.2085C10.7772 16.2085 12.5901 15.7663 13.4744 15.5452L15.2431 13.7766L15.6853 12.229L16.1274 9.79709L15.6853 6.25976L15.2431 3.60679L14.3588 2.05919Z" fill="#828282"/>
<path d="M16.4999 5.4523C16.4304 4.20094 16.1523 3.08862 15.2485 2.18485C14.3448 1.28109 13.2324 1.00301 11.9811 0.933488C10.6949 0.863968 6.83657 0.863968 5.55045 0.933488C4.29908 1.00301 3.22152 1.28109 2.283 2.18485C1.37923 3.08862 1.10115 4.20094 1.03163 5.4523C0.962112 6.73843 0.962112 10.5968 1.03163 11.8829C1.10115 13.1343 1.37923 14.2119 2.283 15.1504C3.22152 16.0541 4.29908 16.3322 5.55045 16.4017C6.83657 16.4713 10.6949 16.4713 11.9811 16.4017C13.2324 16.3322 14.3448 16.0541 15.2485 15.1504C16.1523 14.2119 16.4304 13.1343 16.4999 11.8829C16.5694 10.5968 16.5694 6.73843 16.4999 5.4523ZM14.8314 13.2386C14.5881 13.9338 14.0319 14.4552 13.3715 14.7333C12.3287 15.1504 9.89546 15.0461 8.78314 15.0461C7.63606 15.0461 5.20285 15.1504 4.1948 14.7333C3.4996 14.4552 2.9782 13.9338 2.70012 13.2386C2.283 12.2305 2.38728 9.79732 2.38728 8.65024C2.38728 7.53791 2.283 5.1047 2.70012 4.0619C2.9782 3.40146 3.4996 2.88005 4.1948 2.60197C5.20285 2.18485 7.63606 2.28913 8.78314 2.28913C9.89546 2.28913 12.3287 2.18485 13.3715 2.60197C14.0319 2.84529 14.5533 3.40146 14.8314 4.0619C15.2485 5.1047 15.1442 7.53791 15.1442 8.65024C15.1442 9.79732 15.2485 12.2305 14.8314 13.2386Z" fill="#828282"/>
<path fill-rule="evenodd" clip-rule="evenodd" d="M13.8585 4.51396C13.8585 3.99256 13.4414 3.57544 12.92 3.57544C12.3986 3.57544 11.9815 3.99256 11.9815 4.51396C11.9815 5.03536 12.3986 5.45249 12.92 5.45249C13.4414 5.45249 13.8585 5.03536 13.8585 4.51396ZM8.78355 4.653C6.5589 4.653 4.78613 6.46053 4.78613 8.65042C4.78613 10.8751 6.5589 12.6478 8.78355 12.6478C10.9734 12.6478 12.781 10.8751 12.781 8.65042C12.781 6.46053 10.9734 4.653 8.78355 4.653ZM8.78417 11.2573C7.35901 11.2573 6.17716 10.1102 6.17716 8.65029C6.17716 7.22513 7.32425 6.07804 8.78417 6.07804C10.2093 6.07804 11.3564 7.22513 11.3564 8.65029C11.3564 10.1102 10.2093 11.2573 8.78417 11.2573Z" fill="white"/>
</svg>
