<svg width="18" height="18" viewBox="0 0 18 18" fill="none" xmlns="http://www.w3.org/2000/svg">
<path d="M17.6199 8.6503C17.6199 3.88816 13.7616 0.0297852 8.99942 0.0297852C4.23728 0.0297852 0.378906 3.88816 0.378906 8.6503C0.378906 12.9606 3.50732 16.5408 7.64377 17.1665V11.153L5.45388 11.153V8.6503L7.64377 8.6503L7.64377 6.77325C7.64377 4.61812 8.9299 3.40152 10.8765 3.40152C11.8497 3.40152 12.823 3.57532 12.823 3.57532V5.69569L11.7455 5.69569C10.6679 5.69569 10.3203 6.35613 10.3203 7.05133V8.6503L12.7188 8.6503L12.3364 11.153L10.3203 11.153L10.3203 17.1665C14.4568 16.5408 17.6199 12.9606 17.6199 8.6503Z" fill="#828282"/>
</svg>
