<svg width="41" height="42" viewBox="0 0 41 42" fill="none" xmlns="http://www.w3.org/2000/svg">
<path d="M41 20.9063C41 17.9976 39.1133 15.4819 36.4404 14.46C37.6196 11.9443 37.1479 8.7998 35.104 6.67725C32.9814 4.6333 29.8369 4.16162 27.3213 5.34082C26.2993 2.66797 23.7837 0.78125 20.875 0.78125C17.8877 0.78125 15.3721 2.66797 14.3501 5.34082C11.8345 4.16162 8.68994 4.6333 6.646 6.67725C4.52344 8.7998 4.05176 11.9443 5.23096 14.46C2.55811 15.4819 0.75 17.9976 0.75 20.9062C0.75 23.8936 2.55811 26.4092 5.23096 27.4312C4.05176 29.9468 4.52344 33.0913 6.646 35.1353C8.68994 37.2578 11.8345 37.7295 14.3501 36.5503C15.3721 39.2231 17.8877 41.0313 20.875 41.0313C23.7837 41.0313 26.2993 39.2231 27.3213 36.5503C29.9155 37.7295 32.9814 37.2578 35.104 35.1353C37.1479 33.0913 37.6196 29.9468 36.4404 27.4312C39.1133 26.4092 41 23.8936 41 20.9063ZM29.6011 17.4473L19.3027 27.667C18.9097 28.0601 18.3594 27.9814 18.0449 27.667L12.0703 21.6924C11.7559 21.3779 11.7559 20.8276 12.0703 20.4346L14.1143 18.3906C14.5073 18.0762 15.0576 18.0762 15.3721 18.4692L18.6738 21.771L26.2993 14.2241C26.6924 13.8311 27.2427 13.8311 27.5571 14.2241L29.6011 16.2681C29.9155 16.5825 29.9155 17.1328 29.6011 17.4473Z" fill="#1B84E5"/>
</svg>
