<svg width="19" height="15" viewBox="0 0 19 15" fill="none" xmlns="http://www.w3.org/2000/svg">
<path d="M16.7762 4.03537C17.4714 3.51397 18.0971 2.88829 18.5837 2.15832C17.958 2.43641 17.2281 2.64497 16.4981 2.71449C17.2628 2.2626 17.819 1.5674 18.0971 0.698399C17.4019 1.11552 16.6024 1.42836 15.8029 1.60216C15.1077 0.8722 14.1692 0.455078 13.1264 0.455078C11.1103 0.455078 9.47656 2.0888 9.47656 4.10489C9.47656 4.38297 9.51132 4.66105 9.58084 4.93913C6.55671 4.76533 3.84542 3.30541 2.03789 1.11552C1.72505 1.63692 1.55125 2.2626 1.55125 2.95781C1.55125 4.20917 2.17693 5.3215 3.18498 5.98194C2.59406 5.94718 2.00313 5.80814 1.51649 5.53006V5.56482C1.51649 7.33758 2.76786 8.79751 4.43634 9.14511C4.15826 9.21463 3.81066 9.28415 3.49782 9.28415C3.2545 9.28415 3.04594 9.24939 2.80262 9.21463C3.2545 10.6746 4.61014 11.7174 6.20911 11.7521C4.95774 12.7254 3.39354 13.3163 1.69029 13.3163C1.37745 13.3163 1.09937 13.2816 0.821289 13.2468C2.42025 14.2896 4.33206 14.8805 6.41767 14.8805C13.1264 14.8805 16.7762 9.35367 16.7762 4.52201C16.7762 4.34821 16.7762 4.20917 16.7762 4.03537Z" fill="#828282"/>
</svg>
