<svg width="20" height="15" viewBox="0 0 20 15" fill="none" xmlns="http://www.w3.org/2000/svg">
<path d="M19.583 3.09669C19.3744 2.26244 18.714 1.602 17.9145 1.39344C16.4198 0.976318 10.5106 0.976318 10.5106 0.976318C10.5106 0.976318 4.56662 0.976318 3.07194 1.39344C2.27245 1.602 1.61201 2.26244 1.40345 3.09669C0.986328 4.55661 0.986328 7.68502 0.986328 7.68502C0.986328 7.68502 0.986328 10.7787 1.40345 12.2734C1.61201 13.1076 2.27245 13.7333 3.07194 13.9418C4.56662 14.3242 10.5106 14.3242 10.5106 14.3242C10.5106 14.3242 16.4198 14.3242 17.9145 13.9418C18.714 13.7333 19.3744 13.1076 19.583 12.2734C20.0001 10.7787 20.0001 7.68502 20.0001 7.68502C20.0001 7.68502 20.0001 4.55661 19.583 3.09669ZM8.56404 10.5006V4.86945L13.5 7.68502L8.56404 10.5006Z" fill="#828282"/>
</svg>
