<svg width="130" height="46" viewBox="0 0 130 46" fill="none" xmlns="http://www.w3.org/2000/svg">
<g clip-path="url(#clip0)">
<path fill-rule="evenodd" clip-rule="evenodd" d="M123 46H0V0L129.977 0V38.3529C129.977 42.5768 126.853 46 123 46Z" fill="black"/>
<path fill-rule="evenodd" clip-rule="evenodd" d="M35.3056 11.7144V34.3888H29.5453V24.8664H27.821V34.3888H22.0642V11.7144H27.821V19.824H29.5453V11.7144H35.3056Z" fill="white"/>
<path fill-rule="evenodd" clip-rule="evenodd" d="M62.7964 31.0331V15.2656C62.7964 14.4614 62.56 14.2764 62.115 14.2764C61.611 14.2764 61.3746 14.4614 61.3746 15.2656V31.0295C61.3746 31.8337 61.611 32.0188 62.115 32.0188C62.56 32.0223 62.7964 31.8373 62.7964 31.0331ZM67.8684 29.1791C67.8684 33.2607 64.7953 34.4634 62.0177 34.4634C59.2992 34.4634 56.2261 33.2571 56.2261 29.1791V16.874C56.2261 12.732 59.2992 11.5862 62.0177 11.5862C64.7953 11.5862 67.8684 12.732 67.8684 16.874V29.1791Z" fill="white"/>
<path fill-rule="evenodd" clip-rule="evenodd" d="M41.0103 33.8231C40.468 34.3391 39.8283 34.5953 39.0948 34.5953C38.3822 34.5953 37.7564 34.3427 37.2106 33.8409C36.6579 33.3392 36.3798 32.5065 36.3798 31.35C36.3798 30.9871 36.4702 30.4355 36.6475 29.6953C36.8143 28.9659 37.1237 27.7667 37.5756 26.0942C37.8468 25.0872 38.0345 24.2474 38.1423 23.5713C38.2362 22.9058 38.3926 21.5643 38.6116 19.5396H39.5363C39.8387 22.0874 40.0438 23.6638 40.1481 24.2652C40.2524 24.863 40.461 25.7063 40.7774 26.7881C41.1771 28.1688 41.4309 29.0904 41.5456 29.553C41.7229 30.2718 41.8133 30.8341 41.8133 31.2397C41.8133 32.4567 41.5456 33.3178 41.0103 33.8231Z" fill="white"/>
<path fill-rule="evenodd" clip-rule="evenodd" d="M41.0277 16.1305C40.4924 16.6785 39.8492 16.9489 39.0983 16.9489C38.344 16.9489 37.7078 16.6749 37.1829 16.1305C36.6475 15.5967 36.3833 14.942 36.3833 14.1698C36.3833 13.3976 36.651 12.7393 37.1829 12.1948C37.7078 11.6575 38.344 11.3906 39.0983 11.3906C39.8527 11.3906 40.4958 11.6575 41.0277 12.1948C41.5526 12.7393 41.8134 13.4011 41.8134 14.1698C41.8134 14.942 41.5492 15.5931 41.0277 16.1305Z" fill="white"/>
<path fill-rule="evenodd" clip-rule="evenodd" d="M104.481 34.378L101.175 21.6139L104.419 11.6609H102.083L99.4927 20.2759L99.4301 11.6609H92.7903V34.378H96.6247V27.0725L98.1543 34.378H104.481Z" fill="white"/>
<path fill-rule="evenodd" clip-rule="evenodd" d="M21.0492 30.1682V27.2894H18.5741V31.6379C18.5741 32.6378 18.2682 32.8584 17.7189 32.8584C17.1071 32.8584 16.8012 32.6378 16.8012 31.6379V16.5607C16.8012 15.8099 17.0445 15.6533 17.4721 15.6533C17.8997 15.6533 18.1152 15.8099 18.1152 16.5607V21.877H21.0492V15.8419C21.0492 12.4009 18.4211 11.4294 16.0364 11.4294C13.6829 11.4294 11.0548 12.4009 11.0548 15.8419V30.1682C11.0548 33.6092 13.6829 34.5771 16.0364 34.5771C18.4211 34.5771 21.0492 33.6057 21.0492 30.1682Z" fill="white"/>
<path fill-rule="evenodd" clip-rule="evenodd" d="M112.508 26.2933C112.216 23.7241 111.924 20.5571 111.632 16.7851C111.048 21.1158 110.683 24.2863 110.537 26.2933H112.508ZM115.56 11.7144L118.856 34.3852H112.96L112.671 30.3108H110.607L110.266 34.3852H104.301L107.228 11.7144H115.56Z" fill="white"/>
<path fill-rule="evenodd" clip-rule="evenodd" d="M82.1146 11.7144H91.7197V16.2514H87.8749V20.55H91.4729V24.8664H87.8749V29.8482H92.1021V34.3888H82.1146V11.7144Z" fill="white"/>
<path fill-rule="evenodd" clip-rule="evenodd" d="M81.1203 11.7144V16.2514H77.6996V34.3888H71.9393V16.2514H68.5325V11.7144H81.1203Z" fill="white"/>
<path fill-rule="evenodd" clip-rule="evenodd" d="M48.6547 15.5931V21.3613C48.818 21.372 48.9606 21.3755 49.0788 21.3755C49.6072 21.3755 49.9722 21.2439 50.1738 20.9841C50.3824 20.7137 50.4867 20.1585 50.4902 19.3188V17.4577C50.4902 16.6819 50.372 16.1802 50.1356 15.9453C49.8957 15.7105 49.4021 15.5966 48.6547 15.5931ZM42.8944 11.7144H48.6964C50.2642 11.7144 51.4705 11.8389 52.3083 12.0916C53.1565 12.3442 53.7892 12.7072 54.2098 13.184C54.6374 13.6608 54.926 14.2409 55.072 14.9205C55.2249 15.5931 55.3049 16.6392 55.3049 18.0591V20.034C55.3049 21.4823 55.1589 22.5356 54.8669 23.1975C54.5749 23.8593 54.036 24.3682 53.2538 24.724C52.4786 25.0799 51.4601 25.2578 50.2016 25.2578H48.6547V34.3888H42.8944V11.7144Z" fill="white"/>
</g>
<defs>
<clipPath id="clip0">
<rect width="129.977" height="46" fill="white"/>
</clipPath>
</defs>
</svg>
